<svg width="28" height="28" viewBox="0 0 28 28" fill="none" xmlns="http://www.w3.org/2000/svg">
<rect width="28" height="28" fill="#E5E5E5"/>
<g id="Day 1570 Cards UI Design">
<rect width="1600" height="1200" transform="translate(-506 -399)" fill="#DFE2FF"/>
<g id="Group 1">
<g id="Frame 9">
<rect x="-180" y="-119" width="497" height="402" rx="32" fill="white"/>
<g id="Frame 4">
<g id="Frame 3">
<g id="Frame 2">
<g id="Frame" clip-path="url(#clip0_0_1)">
<path id="Vector" d="M14 16.3333C15.933 16.3333 17.5 14.7663 17.5 12.8333C17.5 10.9003 15.933 9.33333 14 9.33333C12.067 9.33333 10.5 10.9003 10.5 12.8333C10.5 14.7663 12.067 16.3333 14 16.3333Z" stroke="#291F68" stroke-width="1.75" stroke-linecap="round" stroke-linejoin="round"/>
<path id="Vector_2" d="M20.5998 19.4332L15.6497 24.3833C15.2121 24.8204 14.619 25.0659 14.0006 25.0659C13.3821 25.0659 12.789 24.8204 12.3515 24.3833L7.40016 19.4332C6.09492 18.1279 5.20605 16.4648 4.84596 14.6543C4.48587 12.8439 4.67073 10.9673 5.37716 9.26185C6.0836 7.55644 7.27987 6.0988 8.81472 5.07326C10.3496 4.04772 12.1541 3.50034 14 3.50034C15.8459 3.50034 17.6504 4.04772 19.1853 5.07326C20.7201 6.0988 21.9164 7.55644 22.6228 9.26185C23.3293 10.9673 23.5141 12.8439 23.154 14.6543C22.7939 16.4648 21.9051 18.1279 20.5998 19.4332V19.4332Z" stroke="#291F68" stroke-width="1.75" stroke-linecap="round" stroke-linejoin="round"/>
</g>
</g>
</g>
</g>
</g>
</g>
</g>
<defs>
<clipPath id="clip0_0_1">
<rect width="28" height="28" fill="white"/>
</clipPath>
</defs>
</svg>
